<?xml version="1.0" encoding="iso-8859-1"?>
<!-- Uploaded to: SVG Repo, www.svgrepo.com, Generator: SVG Repo Mixer Tools -->
<svg xmlns="http://www.w3.org/2000/svg" xmlns:xlink="http://www.w3.org/1999/xlink" version="1.1" id="Capa_1"  viewBox="0 0 465 465" xml:space="preserve" width="512" height="512">
<g>
	<path style="fill:#FF6A2E;" d="M254.84,253.37c36.15,0.37,68.5,14.33,91.31,36.35c-23.13,21.59-55.73,34.94-91.82,34.65   c-36.2-0.28-68.7-14.14-91.46-36.15C185.93,266.54,218.63,253.14,254.84,253.37z"/>
	<path style="fill:#6ECDFB;" d="M162.87,288.22c22.76,22.01,55.26,35.87,91.46,36.15c36.09,0.29,68.69-13.06,91.82-34.65   c-22.81-22.02-55.16-35.98-91.31-36.35C218.63,253.14,185.93,266.54,162.87,288.22z M442.32,129.84   c9.8,25.24,15.18,52.69,15.18,81.39c0,124.27-100.74,225-225,225s-225-100.73-225-225c0-28.72,5.38-56.17,15.2-81.42   c7.62,7.33,17.16,11.7,27.54,11.7c14.96,0,28.22-9.09,36.46-23c8.25,13.91,21.49,23,36.45,23s28.19-9.09,36.46-23   c8.25,13.91,21.48,23,36.44,23c14.96,0,28.22-9.09,36.46-23c8.25,13.91,21.48,23,36.45,23c14.96,0,28.19-9.09,36.46-23   c8.25,13.91,21.47,23,36.43,23c14.97,0,28.23-9.09,36.47-23c8.24,13.91,21.48,23,36.44,23   C425.13,141.51,434.69,137.14,442.32,129.84z"/>
	<path style="fill:#FFFFFF;" d="M442.32,129.84c-7.63,7.3-17.19,11.67-27.56,11.67c-14.96,0-28.2-9.09-36.44-23   c-8.24,13.91-21.5,23-36.47,23c-14.96,0-28.18-9.09-36.43-23c-8.27,13.91-21.5,23-36.46,23c-14.97,0-28.2-9.09-36.45-23   c-8.24,13.91-21.5,23-36.46,23c-14.96,0-28.19-9.09-36.44-23c-8.27,13.91-21.5,23-36.46,23s-28.2-9.09-36.45-23   c-8.24,13.91-21.5,23-36.46,23c-10.38,0-19.92-4.37-27.54-11.7c15.83-40.78,43.22-75.8,78.15-101.04h263.3   C399.09,54.02,426.48,89.05,442.32,129.84z"/>
	<path style="fill:#591200;" d="M414.756,134.009c-11.783,0-22.71-7.042-29.979-19.321c-1.351-2.28-3.804-3.679-6.454-3.679   s-5.104,1.398-6.454,3.68c-7.269,12.278-18.209,19.32-30.017,19.32c-11.772,0-22.7-7.044-29.982-19.325   c-1.351-2.277-3.801-3.674-6.448-3.675c-2.649,0-5.101,1.396-6.451,3.671c-7.295,12.284-18.233,19.329-30.011,19.329   c-11.78,0-22.713-7.044-29.995-19.325c-1.351-2.278-3.803-3.675-6.451-3.675c-2.651,0.001-5.104,1.399-6.454,3.679   c-7.27,12.279-18.206,19.321-30.005,19.321c-11.78,0-22.713-7.044-29.995-19.325c-1.351-2.277-3.801-3.674-6.448-3.675   c-2.649,0-5.101,1.396-6.451,3.671c-7.295,12.284-18.233,19.329-30.01,19.329c-11.78,0-22.713-7.044-29.995-19.325   c-1.351-2.278-3.803-3.675-6.451-3.675c-2.651,0.001-5.104,1.399-6.454,3.679c-7.27,12.279-18.206,19.321-30.005,19.321   c-4.143,0-7.5,3.357-7.5,7.5s3.357,7.5,7.5,7.5c13.667,0,26.729-6.463,36.462-17.696c9.738,11.233,22.793,17.696,36.443,17.696   c13.648,0,26.708-6.466,36.454-17.703c9.739,11.238,22.796,17.703,36.45,17.703c13.667,0,26.729-6.463,36.462-17.696   c9.738,11.233,22.793,17.696,36.443,17.696c13.649,0,26.708-6.465,36.455-17.703c9.737,11.238,22.79,17.703,36.438,17.703   c13.673,0,26.736-6.461,36.47-17.692c9.73,11.231,22.781,17.692,36.435,17.692c4.143,0,7.5-3.357,7.5-7.5   S418.898,134.009,414.756,134.009z"/>
	<path style="fill:#591200;" d="M465,211.233c0-37.415-9.103-74.604-26.323-107.545c-16.663-31.872-40.914-59.882-70.133-81   c-1.278-0.925-2.816-1.422-4.394-1.422H100.85c-1.577,0-3.115,0.497-4.394,1.422c-29.219,21.118-53.47,49.128-70.133,81   C9.103,136.63,0,173.818,0,211.233c0,62.104,24.185,120.489,68.098,164.402c24.873,24.873,54.391,43.409,86.595,54.813   c-1.665,1.375-2.726,3.456-2.726,5.785c0,4.143,3.357,7.5,7.5,7.5h146.066c4.143,0,7.5-3.357,7.5-7.5   c0-2.329-1.061-4.409-2.726-5.785c32.204-11.404,61.722-29.94,86.595-54.813C440.815,331.723,465,273.337,465,211.233z    M232.5,428.733c-119.93,0-217.5-97.57-217.5-217.5c0-68.804,32.965-134.026,88.299-174.967h258.402   C417.035,77.207,450,142.43,450,211.233C450,331.163,352.43,428.733,232.5,428.733z"/>
	<path style="fill:#591200;" d="M254.894,245.374l-0.989-0.003c-34.301,0-66.374,11.401-91.131,32.237l-38.989-30.532   c-3.48-2.723-8.508-2.111-11.231,1.366c-2.724,3.479-2.112,8.507,1.366,11.231l36.201,28.349l-36.377,30.188   c-3.4,2.821-3.869,7.865-1.048,11.265c1.582,1.907,3.862,2.892,6.16,2.892c1.801,0,3.611-0.604,5.104-1.844l38.43-31.891   c24.743,21.535,57.093,33.466,91.872,33.734c0.413,0.003,0.831,0.005,1.244,0.005c36.545,0,70.675-13.069,96.101-36.798   c1.604-1.497,2.523-3.587,2.542-5.781s-0.865-4.299-2.444-5.823C326.309,259.454,291.938,245.747,254.894,245.374z    M255.506,316.371l-1.117-0.005c-29.511-0.228-57.976-10.367-79.438-28.069c21.612-17.423,49.313-26.926,78.953-26.926l0.856,0.003   c29.812,0.3,57.633,10.27,79.287,28.246C312.438,306.93,284.881,316.371,255.506,316.371z"/>
</g>















</svg>